<svg width="512" height="512" viewBox="0 0 512 512" fill="none" xmlns="http://www.w3.org/2000/svg">
<rect width="512" height="512" rx="50" fill="#01A66B"/>
<path d="M77.4461 198.332H92.8821L101.382 211.252L109.814 198.332H125.454L109.814 221.112L126.814 246H110.97L101.382 231.924L91.8621 246H76.3581L93.2901 221.724L77.4461 198.332ZM128.881 246V198.4H152.001C157.713 198.4 162.133 199.488 165.261 201.664C168.435 203.795 170.021 206.832 170.021 210.776C170.021 214.629 168.548 217.667 165.601 219.888C162.655 222.064 158.711 223.152 153.769 223.152L155.129 219.956C160.479 219.956 164.649 221.021 167.641 223.152C170.679 225.237 172.197 228.32 172.197 232.4C172.197 236.571 170.565 239.88 167.301 242.328C164.083 244.776 159.413 246 153.293 246H128.881ZM142.141 236.344H152.749C154.699 236.344 156.149 235.936 157.101 235.12C158.099 234.259 158.597 233.012 158.597 231.38C158.597 229.748 158.099 228.547 157.101 227.776C156.149 226.96 154.699 226.552 152.749 226.552H142.141V236.344ZM142.141 217.44H150.709C152.613 217.44 154.041 217.055 154.993 216.284C155.945 215.468 156.421 214.289 156.421 212.748C156.421 211.207 155.945 210.051 154.993 209.28C154.041 208.464 152.613 208.056 150.709 208.056H142.141V217.44ZM200.835 246.952C197.027 246.952 193.513 246.34 190.295 245.116C187.076 243.892 184.265 242.169 181.863 239.948C179.505 237.681 177.669 235.052 176.355 232.06C175.04 229.068 174.383 225.781 174.383 222.2C174.383 218.619 175.04 215.332 176.355 212.34C177.669 209.348 179.505 206.741 181.863 204.52C184.265 202.253 187.076 200.508 190.295 199.284C193.513 198.06 197.027 197.448 200.835 197.448C204.688 197.448 208.201 198.06 211.375 199.284C214.593 200.508 217.381 202.253 219.739 204.52C222.096 206.741 223.932 209.348 225.247 212.34C226.607 215.332 227.287 218.619 227.287 222.2C227.287 225.781 226.607 229.091 225.247 232.128C223.932 235.12 222.096 237.727 219.739 239.948C217.381 242.169 214.593 243.892 211.375 245.116C208.201 246.34 204.688 246.952 200.835 246.952ZM200.835 235.8C202.648 235.8 204.325 235.483 205.867 234.848C207.453 234.213 208.813 233.307 209.947 232.128C211.125 230.904 212.032 229.453 212.667 227.776C213.347 226.099 213.687 224.24 213.687 222.2C213.687 220.115 213.347 218.256 212.667 216.624C212.032 214.947 211.125 213.519 209.947 212.34C208.813 211.116 207.453 210.187 205.867 209.552C204.325 208.917 202.648 208.6 200.835 208.6C199.021 208.6 197.321 208.917 195.735 209.552C194.193 210.187 192.833 211.116 191.655 212.34C190.521 213.519 189.615 214.947 188.935 216.624C188.3 218.256 187.983 220.115 187.983 222.2C187.983 224.24 188.3 226.099 188.935 227.776C189.615 229.453 190.521 230.904 191.655 232.128C192.833 233.307 194.193 234.213 195.735 234.848C197.321 235.483 199.021 235.8 200.835 235.8ZM232.446 246V198.4H245.706V226.348L265.358 198.4H278.006V246H264.746V218.12L245.162 246H232.446ZM255.158 195.544C250.216 195.544 246.658 194.592 244.482 192.688C242.306 190.739 241.218 187.996 241.218 184.46H250.262C250.307 186.047 250.715 187.225 251.486 187.996C252.256 188.767 253.48 189.152 255.158 189.152C256.88 189.152 258.127 188.767 258.898 187.996C259.714 187.225 260.144 186.047 260.19 184.46H269.234C269.234 187.996 268.123 190.739 265.902 192.688C263.68 194.592 260.099 195.544 255.158 195.544ZM318.011 198.4H331.475V246H318.011V198.4ZM299.651 246H286.187V198.4H299.651V246ZM318.963 227.436H298.699V216.284H318.963V227.436ZM334.903 246L355.915 198.4H369.175L390.255 246H376.247L359.791 204.996H365.095L348.639 246H334.903ZM346.395 236.752L349.863 226.824H373.119L376.587 236.752H346.395ZM417.668 246V231.244L420.864 234.032H408.828C404.566 234.032 400.894 233.329 397.812 231.924C394.729 230.519 392.349 228.501 390.672 225.872C389.04 223.243 388.224 220.115 388.224 216.488C388.224 212.725 389.085 209.507 390.808 206.832C392.576 204.112 395.046 202.027 398.22 200.576C401.438 199.125 405.201 198.4 409.508 198.4H430.928V246H417.668ZM388.36 246L400.26 228.796H413.792L402.504 246H388.36ZM417.668 226.96V205.676L420.864 209.008H409.78C407.15 209.008 405.156 209.62 403.796 210.844C402.481 212.023 401.824 213.836 401.824 216.284C401.824 218.687 402.481 220.523 403.796 221.792C405.156 223.016 407.105 223.628 409.644 223.628H420.864L417.668 226.96ZM40.0017 314V266.4H84.6777V314H71.3497V274.084L74.3417 277.076H50.3377L53.2617 274.084V314H40.0017ZM116.205 314.952C112.397 314.952 108.884 314.34 105.665 313.116C102.447 311.892 99.6359 310.169 97.2333 307.948C94.8759 305.681 93.0399 303.052 91.7253 300.06C90.4106 297.068 89.7533 293.781 89.7533 290.2C89.7533 286.619 90.4106 283.332 91.7253 280.34C93.0399 277.348 94.8759 274.741 97.2333 272.52C99.6359 270.253 102.447 268.508 105.665 267.284C108.884 266.06 112.397 265.448 116.205 265.448C120.059 265.448 123.572 266.06 126.745 267.284C129.964 268.508 132.752 270.253 135.109 272.52C137.467 274.741 139.303 277.348 140.617 280.34C141.977 283.332 142.657 286.619 142.657 290.2C142.657 293.781 141.977 297.091 140.617 300.128C139.303 303.12 137.467 305.727 135.109 307.948C132.752 310.169 129.964 311.892 126.745 313.116C123.572 314.34 120.059 314.952 116.205 314.952ZM116.205 303.8C118.019 303.8 119.696 303.483 121.237 302.848C122.824 302.213 124.184 301.307 125.317 300.128C126.496 298.904 127.403 297.453 128.037 295.776C128.717 294.099 129.057 292.24 129.057 290.2C129.057 288.115 128.717 286.256 128.037 284.624C127.403 282.947 126.496 281.519 125.317 280.34C124.184 279.116 122.824 278.187 121.237 277.552C119.696 276.917 118.019 276.6 116.205 276.6C114.392 276.6 112.692 276.917 111.105 277.552C109.564 278.187 108.204 279.116 107.025 280.34C105.892 281.519 104.985 282.947 104.305 284.624C103.671 286.256 103.353 288.115 103.353 290.2C103.353 292.24 103.671 294.099 104.305 295.776C104.985 297.453 105.892 298.904 107.025 300.128C108.204 301.307 109.564 302.213 111.105 302.848C112.692 303.483 114.392 303.8 116.205 303.8ZM177.904 308.152V277.076H164.236L164.032 282.244C163.941 285.009 163.76 287.593 163.488 289.996C163.261 292.399 162.921 294.597 162.468 296.592C162.06 298.587 161.493 300.309 160.768 301.76C160.088 303.165 159.249 304.253 158.252 305.024L143.904 303.324C145.491 303.369 146.783 302.848 147.78 301.76C148.823 300.627 149.639 299.063 150.228 297.068C150.863 295.073 151.316 292.716 151.588 289.996C151.905 287.276 152.132 284.307 152.268 281.088L152.812 266.4H191.164V308.152H177.904ZM142.476 323.588V303.324H197.624V323.588H185.316V314H154.852V323.588H142.476ZM203.994 314.816C203.088 314.816 202.113 314.748 201.07 314.612C200.073 314.476 199.008 314.272 197.874 314L198.622 302.984C199.257 303.12 199.869 303.188 200.458 303.188C202.317 303.188 203.722 302.463 204.674 301.012C205.626 299.516 206.284 297.431 206.646 294.756C207.054 292.081 207.304 288.953 207.394 285.372L208.074 266.4H246.426V314H233.166V274.084L236.09 277.076H216.846L219.566 273.948L219.226 284.828C219.09 289.452 218.773 293.623 218.274 297.34C217.776 301.012 216.982 304.163 215.894 306.792C214.806 309.376 213.288 311.371 211.338 312.776C209.434 314.136 206.986 314.816 203.994 314.816ZM277.96 314.952C274.152 314.952 270.639 314.34 267.42 313.116C264.202 311.892 261.391 310.169 258.988 307.948C256.631 305.681 254.795 303.052 253.48 300.06C252.166 297.068 251.508 293.781 251.508 290.2C251.508 286.619 252.166 283.332 253.48 280.34C254.795 277.348 256.631 274.741 258.988 272.52C261.391 270.253 264.202 268.508 267.42 267.284C270.639 266.06 274.152 265.448 277.96 265.448C281.814 265.448 285.327 266.06 288.5 267.284C291.719 268.508 294.507 270.253 296.864 272.52C299.222 274.741 301.058 277.348 302.372 280.34C303.732 283.332 304.412 286.619 304.412 290.2C304.412 293.781 303.732 297.091 302.372 300.128C301.058 303.12 299.222 305.727 296.864 307.948C294.507 310.169 291.719 311.892 288.5 313.116C285.327 314.34 281.814 314.952 277.96 314.952ZM277.96 303.8C279.774 303.8 281.451 303.483 282.992 302.848C284.579 302.213 285.939 301.307 287.072 300.128C288.251 298.904 289.158 297.453 289.792 295.776C290.472 294.099 290.812 292.24 290.812 290.2C290.812 288.115 290.472 286.256 289.792 284.624C289.158 282.947 288.251 281.519 287.072 280.34C285.939 279.116 284.579 278.187 282.992 277.552C281.451 276.917 279.774 276.6 277.96 276.6C276.147 276.6 274.447 276.917 272.86 277.552C271.319 278.187 269.959 279.116 268.78 280.34C267.647 281.519 266.74 282.947 266.06 284.624C265.426 286.256 265.108 288.115 265.108 290.2C265.108 292.24 265.426 294.099 266.06 295.776C266.74 297.453 267.647 298.904 268.78 300.128C269.959 301.307 271.319 302.213 272.86 302.848C274.447 303.483 276.147 303.8 277.96 303.8ZM361.973 314L350.481 291.356L361.769 284.964L377.477 314H361.973ZM343.137 295.776V284.896H358.505V295.776H343.137ZM362.517 291.628L350.073 290.268L362.585 266.4H376.661L362.517 291.628ZM318.929 314H303.357L319.133 284.964L330.489 291.356L318.929 314ZM347.081 314H333.889V266.4H347.081V314ZM337.833 295.776H322.397V284.896H337.833V295.776ZM318.385 291.628L304.173 266.4H318.317L330.625 290.268L318.385 291.628ZM409.837 314L396.441 291.356L407.253 284.964L425.001 314H409.837ZM379.509 314V266.4H392.905V314H379.509ZM389.029 295.776V284.896H406.301V295.776H389.029ZM408.545 291.628L396.101 290.268L410.721 266.4H424.865L408.545 291.628ZM421.391 314L442.403 266.4H455.663L476.743 314H462.735L446.279 272.996H451.583L435.127 314H421.391ZM432.883 304.752L436.351 294.824H459.607L463.075 304.752H432.883Z" fill="white"/>
</svg>
