<svg width="22" height="22" viewBox="0 0 22 22" fill="none" xmlns="http://www.w3.org/2000/svg">
<path d="M13.0155 11.018L21.5819 2.45138C22.1394 1.89416 22.1394 0.993208 21.5819 0.435984C21.0247 -0.121239 20.1237 -0.121239 19.5665 0.435984L10.9999 9.00261L2.43352 0.435984C1.87603 -0.121239 0.975337 -0.121239 0.418114 0.435984C-0.139371 0.993208 -0.139371 1.89416 0.418114 2.45138L8.98448 11.018L0.418114 19.5846C-0.139371 20.1419 -0.139371 21.0428 0.418114 21.6C0.695812 21.878 1.06094 22.0176 1.42581 22.0176C1.79068 22.0176 2.15556 21.878 2.43352 21.6L10.9999 13.0334L19.5665 21.6C19.8445 21.878 20.2093 22.0176 20.5742 22.0176C20.9391 22.0176 21.304 21.878 21.5819 21.6C22.1394 21.0428 22.1394 20.1419 21.5819 19.5846L13.0155 11.018Z" fill="#082151"/>
</svg>
