<svg width="16" height="16" viewBox="0 0 16 16" fill="none" xmlns="http://www.w3.org/2000/svg">
<path d="M14.6667 6.00001H11.4734L8.55335 1.62668C8.42669 1.44001 8.21335 1.34668 8.00002 1.34668C7.78669 1.34668 7.57335 1.44001 7.44669 1.63335L4.52669 6.00001H1.33335C0.966687 6.00001 0.666687 6.30001 0.666687 6.66668C0.666687 6.72668 0.673354 6.78668 0.693354 6.84668L2.38669 13.0267C2.54002 13.5867 3.05335 14 3.66669 14H12.3334C12.9467 14 13.46 13.5867 13.62 13.0267L15.3134 6.84668L15.3334 6.66668C15.3334 6.30001 15.0334 6.00001 14.6667 6.00001ZM8.00002 3.20001L9.86669 6.00001H6.13335L8.00002 3.20001ZM12.3334 12.6667L3.67335 12.6733L2.20669 7.33335H13.8L12.3334 12.6667ZM8.00002 8.66668C7.26669 8.66668 6.66669 9.26668 6.66669 10C6.66669 10.7333 7.26669 11.3333 8.00002 11.3333C8.73335 11.3333 9.33335 10.7333 9.33335 10C9.33335 9.26668 8.73335 8.66668 8.00002 8.66668Z" fill="white"/>
</svg>
