<svg width="20" height="20" viewBox="0 0 20 20" fill="none" xmlns="http://www.w3.org/2000/svg">
<g opacity="0.3" clip-path="url(#clip0_0_102)">
<path d="M8.50959 9.96167C8.5013 11.118 8.74627 12.2622 9.2273 13.3137L11.089 13.5255C11.1409 13.5351 11.1886 13.5602 11.226 13.5975C11.2633 13.6348 11.2884 13.6826 11.2979 13.7345L11.9827 16.8996C12.0118 17.0166 12.0133 17.1388 11.9871 17.2565C11.961 17.3742 11.9078 17.4842 11.8317 17.5778C11.7557 17.6714 11.659 17.7461 11.5492 17.7959C11.4394 17.8457 11.3195 17.8693 11.199 17.8648L9.40604 17.8538C9.14925 17.8522 8.89683 17.7871 8.67131 17.6643C8.44579 17.5415 8.25419 17.3647 8.11361 17.1498C6.70675 15.0106 5.93012 12.5187 5.87247 9.95892C5.85631 7.41578 6.57848 4.92259 7.95137 2.78179C8.08843 2.56887 8.27817 2.39496 8.50219 2.27693C8.72622 2.15889 8.97694 2.10073 9.23005 2.10807L11.067 2.14107C11.1843 2.13947 11.3004 2.16443 11.4067 2.21408C11.513 2.26374 11.6067 2.33679 11.6808 2.42778C11.7548 2.51878 11.8074 2.62534 11.8344 2.73951C11.8614 2.85367 11.8623 2.97247 11.8369 3.08702L11.2182 6.26861C11.2105 6.32055 11.1862 6.36863 11.1491 6.40576C11.112 6.44289 11.0639 6.46711 11.012 6.47485L9.15306 6.64534C8.69511 7.68933 8.4753 8.82217 8.50959 9.96167Z" fill="#212121"/>
</g>
<defs>
<clipPath id="clip0_0_102">
<rect width="14" height="14" fill="white" transform="translate(10 0.100586) rotate(45)"/>
</clipPath>
</defs>
</svg>
